<svg width="37" height="36" viewBox="0 0 37 36" fill="none" xmlns="http://www.w3.org/2000/svg">
<path d="M0 6C0 2.68629 2.68629 0 6 0H30C33.3137 0 36 2.68629 36 6V30C36 33.3137 33.3137 36 30 36H6C2.68629 36 0 33.3137 0 30V6Z" fill="#414752"/>
<path fill-rule="evenodd" clip-rule="evenodd" d="M4.5 12.9995V11.0005C5.82502 11.0005 6.7523 10.6722 7.41405 10.2313C8.08206 9.78616 8.53989 9.18549 8.85557 8.55442C9.17322 7.91944 9.33702 7.27235 9.41986 6.77558C9.46088 6.52956 9.481 6.32673 9.49082 6.18932C9.49572 6.12078 9.49802 6.06903 9.49909 6.03689C9.49963 6.02084 9.49985 6.00973 9.49995 6.00393L9.5 6.00116C9.5 6.00116 9.5 6.00284 10.5 6.00284C11.5 6.00284 11.5 6.00193 11.5 6.00193L11.5001 6.00393C11.5001 6.00973 11.5004 6.02084 11.5009 6.03689C11.502 6.06903 11.5043 6.12078 11.5092 6.18932C11.519 6.32673 11.5391 6.52956 11.5801 6.77558C11.663 7.27235 11.8268 7.91944 12.1444 8.55442C12.4601 9.18549 12.9179 9.78616 13.5859 10.2313C14.2477 10.6722 15.175 11.0005 16.5 11.0005V12.9995C15.175 12.9995 14.2477 13.3278 13.5859 13.7687C12.9179 14.2138 12.4601 14.8145 12.1444 15.4456C11.8268 16.0806 11.663 16.7277 11.5801 17.2244C11.5391 17.4704 11.519 17.6733 11.5092 17.8107C11.5043 17.8792 11.502 17.931 11.5009 17.9631L11.5003 17.9833L11.5001 17.9961L11.5 17.9988C11.5 17.9988 11.5 17.9972 10.5 17.9972C9.5 17.9972 9.5 17.9981 9.5 17.9981L9.49995 17.9961C9.49985 17.9903 9.49963 17.9792 9.49909 17.9631C9.49802 17.931 9.49572 17.8792 9.49082 17.8107C9.481 17.6733 9.46088 17.4704 9.41986 17.2244C9.33702 16.7277 9.17322 16.0806 8.85557 15.4456C8.53989 14.8145 8.08206 14.2138 7.41405 13.7687C6.7523 13.3278 5.82502 12.9995 4.5 12.9995ZM14.4167 30H9L23.0833 6H28.5L14.4167 30ZM22.5 24.7504V26.2496C23.4938 26.2496 24.1892 26.4958 24.6855 26.8265C25.1865 27.1604 25.5299 27.6109 25.7667 28.0842C26.0049 28.5604 26.1278 29.0457 26.1899 29.4183C26.2207 29.6028 26.2358 29.755 26.2431 29.858C26.2468 29.9094 26.2485 29.9482 26.2493 29.9723L26.25 29.9971L26.25 29.9986C26.25 29.9986 26.25 29.9979 27 29.9979C27.75 29.9979 27.75 29.9991 27.75 29.9991L27.75 29.9971L27.7507 29.9723C27.7515 29.9482 27.7532 29.9094 27.7569 29.858C27.7642 29.755 27.7793 29.6028 27.8101 29.4183C27.8722 29.0457 27.9951 28.5604 28.2333 28.0842C28.4701 27.6109 28.8135 27.1604 29.3145 26.8265C29.8108 26.4958 30.5062 26.2496 31.5 26.2496V24.7504C30.5062 24.7504 29.8108 24.5042 29.3145 24.1735C28.8135 23.8396 28.4701 23.3891 28.2333 22.9158C27.9951 22.4396 27.8722 21.9543 27.8101 21.5817C27.7793 21.3972 27.7642 21.245 27.7569 21.142C27.7532 21.0906 27.7515 21.0518 27.7507 21.0277L27.75 21.0029L27.75 21.0014C27.75 21.0014 27.75 21.0021 27 21.0021C26.25 21.0021 26.25 21.0009 26.25 21.0009L26.25 21.0029L26.2493 21.0277C26.2485 21.0518 26.2468 21.0906 26.2431 21.142C26.2358 21.245 26.2207 21.3972 26.1899 21.5817C26.1278 21.9543 26.0049 22.4396 25.7667 22.9158C25.5299 23.3891 25.1865 23.8396 24.6855 24.1735C24.1892 24.5042 23.4938 24.7504 22.5 24.7504Z" fill="url(#paint0_linear_1_9486)"/>
<defs>
<linearGradient id="paint0_linear_1_9486" x1="17.403" y1="6" x2="17.403" y2="30" gradientUnits="userSpaceOnUse">
<stop stop-color="#8FFFFF"/>
<stop offset="1" stop-color="#5B94FE"/>
</linearGradient>
</defs>
</svg>
